/* XPM */
static char *product_logo_32[] = {
/* columns rows colors chars-per-pixel */
"32 32 138 2 ",
"   c None",
".  c #E64000",
"X  c #E94400",
"o  c #ED4D06",
"O  c #EC510C",
"+  c #F3550D",
"@  c #FA570B",
"#  c #FB590E",
"$  c #EC5513",
"%  c #EE5917",
"&  c #EC5A1A",
"*  c #F05611",
"=  c #F25A14",
"-  c #FB5D13",
";  c #F35E1B",
":  c #FB6017",
">  c #F4601D",
",  c #FB651F",
"<  c #FF681F",
"1  c #E95E22",
"2  c #EA6125",
"3  c #F16424",
"4  c #FB6621",
"5  c #FD6A23",
"6  c #F1692C",
"7  c #FB6E2C",
"8  c #ED6D34",
"9  c #EF7037",
"0  c #EC733D",
"q  c #F17036",
"w  c #FC7535",
"e  c #F1733B",
"r  c #FC7739",
"t  c #FC7B3F",
"y  c #EF7641",
"u  c #EF7844",
"i  c #EC7B4B",
"p  c #F07944",
"a  c #FC7E43",
"s  c #FF803F",
"d  c #FC844D",
"f  c #F48351",
"g  c #FC8852",
"h  c #F3895A",
"j  c #FA8B58",
"k  c #EE8F63",
"l  c #F28E62",
"z  c #E89069",
"x  c #F39166",
"c  c #FC9666",
"v  c #F2946B",
"b  c #FC9A6D",
"n  c #F39A73",
"m  c #F69F78",
"M  c #FBA076",
"N  c #F6A17C",
"B  c #FDA57D",
"V  c #F4A582",
"C  c #F6A886",
"Z  c #F6AC8B",
"A  c #FDAE8A",
"S  c #E9AC90",
"D  c #F6B294",
"F  c #FDB491",
"G  c #F5B59A",
"H  c #F8B699",
"J  c #FDBA9B",
"K  c #E9BDA9",
"L  c #F6BCA3",
"P  c #FABDA1",
"I  c #F6C2AA",
"U  c #FBC5AC",
"Y  c #FFCAAF",
"T  c #E8C5B6",
"R  c #F8C7B1",
"E  c #FBCCB6",
"W  c #F9CEBC",
"Q  c #FCD2BF",
"!  c #E5D3CB",
"~  c #FAD3C2",
"^  c #FBDACC",
"/  c #FBD9C9",
"(  c #F8DDD1",
")  c #FBDED1",
"_  c #FBDED2",
"`  c #FEDFD1",
"'  c #FCDFD2",
"]  c #ECE1DC",
"[  c #FEE1D3",
"{  c #FBE1D5",
"}  c #FBE2D7",
"|  c #FBE4D9",
" . c #FCE4D9",
".. c #FCE7DD",
"X. c #FEE7DC",
"o. c #FEE8DD",
"O. c #EEE9E7",
"+. c #E5ECEF",
"@. c #EAE9E9",
"#. c #FFEAE1",
"$. c #FCEAE2",
"%. c #FFEBE3",
"&. c #FFECE3",
"*. c #FDECE4",
"=. c #FDEDE6",
"-. c #FDEEE7",
";. c #FDEBE4",
":. c #FDEEE8",
">. c #FFEFE8",
",. c #FEF0EA",
"<. c #FEF1EC",
"1. c #FDF2ED",
"2. c #FEF2EC",
"3. c #E4EDF2",
"4. c #FEF4F0",
"5. c #FEF5F1",
"6. c #FEF6F2",
"7. c #FFF6F2",
"8. c #FEF7F4",
"9. c #FEF8F5",
"0. c #FEF8F6",
"q. c #FEF9F7",
"w. c #FFFAF7",
"e. c #F2F6F8",
"r. c #FEFAF8",
"t. c #FFFAF8",
"y. c #FFFBF9",
"u. c #FFFBFA",
"i. c #FFFCFA",
"p. c #FFFCFB",
"a. c #FFFCFC",
"s. c #FFFDFC",
"d. c #FFFDFD",
"f. c #FFFEFD",
"g. c #FFFEFE",
"h. c #FFFFFE",
"j. c white",
"k. c #FFFFFE",
/* pixels */
"        4 , , , , , , , , , , , , , , , , , , , , , , 4         ",
"    , 5 4 , , , , , , , , , , , , , , , , , , , , , , 4 5 ,     ",
"  , 5 , , , , , , , , , 4 4 4 4 , 4 4 4 , , , , , , , , , 5 ,   ",
"  5 , , , , , , , , , 4 - # # : 5 , - - 4 , , , , , , , , , 5   ",
", 4 , , , , , , 4 4 4 - g J F a @ a c a - 4 4 , , , , , , , 4 , ",
", , , , , , , 4 , - - A j.j.j.j.B B j.j.P - , 4 4 , , , , , , , ",
", , , , , , , # 5 d U j.j.j.j.j.j.%.j.j.j.J 7 - , 4 , , , , , , ",
", , , , , , 4 B o.j.j.j.j.j.j.j.j.j.j.j.j.j.8.E r , 4 , , , , , ",
", , , , , , t ` j.j.j.j.j.j.j.j.j.j.j.j.j.j.j.j.E , , , , , , , ",
", , , , 4 : w Q j.j.:.{ j.j.j.j.j.j.j.j.j.j.j.q.l = 4 , , , , , ",
", , , 4 , 7 %.j.j.j.i W j.j.j.j.j.j.j.j.j.j.j.j.%.3 , 4 , , , , ",
", , , 4 # J j.q.j.~ 0 j.j.j.j.j.j.j.j.j.j.j.,.8.j.x + 5 , , , , ",
", , , 4 , { j.j.j.L i j.j.j.j.j.X.i W j.j.8.& u j.n O 5 , , , , ",
", , , , , X.j.j.j.~ 1 8.j.j.j.j.Q . D j.j.j.l V j.x X > 4 4 , , ",
", , 4 , 5 :.j.j.j.j.2 G j.j.j.j.j.%.j.j.j.j.j.j.j.~ p q , , 4 , ",
", , 4 - g j.j.j.j.j.G 1 q.j.j.j.j.j.j.j.j.j.j.j.j.%./ E J 5 , 4 ",
", 4 , , / j.j.j.j.j.j.8 D j.j.j.j.j.j.j.j.j.j.j.` $ % o V M # 4 ",
", 4 - J j.j.j.j.j.j.j.E 8 j.j.j.j.j.j.j.j.j.j.j.8.e $ o P C @ 5 ",
"4 , w j.j.j.j.j.j.j.j.j.8 ~ j.j.j.j.%.8.j.j.j.j.j.8.e h j.x + 5 ",
"4 - j j.j.j.j.j.j.j.j.j.v C j.j.j.j.~ 8 W j.j.j.j./ 6 ,.j.e = 4 ",
"4 - d j.j.j.j.j.j.j.j.j.V n j.j.j.j.j.P & q N C h % 3 ~ H * ; > ",
"4 , , %.j.j.j.j.j.j.j.j.l C j.j.j.j.j.j.%.C h h m ` X.= * ; ; ; ",
", 4 - b L W j.j.j.j.j.X.& ` j.j.j.C X.j.j.j.j.j.j.j.N = > ; ; ; ",
", , 4 , & 2 R j.j.j.W % n j.j.j.j.` y n / ,.q.,.W f + ; ; ; ; ; ",
", , , 4 > $ O y l 0 $ N j.j.j.j.j.j.] z 0 q q 6 * * > ; ; ; ; ; ",
", , , , , & & o 8 U %.j.j.j.j.j.j.j.j.3.3.S + ; ; > ; ; ; ; ; ; ",
", , , , , > & O ~ j.j.j.j.j.j.j.j.j.j.O.3.K * > ; ; ; ; ; ; ; ; ",
", 4 , , , 5 o n j.j.j.j.j.j.j.j.j.j.j.j.+.T = ; ; ; ; ; ; ; , ; ",
"  5 , 4 5 # j j.j.j.j.j.j.j.j.j.j.j.j.j.e.! 3 ; ; ; ; ; > ; ,   ",
"  , 5 - # b j.j.j.j.j.j.j.j.j.j.j.j.j.j.j.@.q = > ; ; ; ; < >   ",
"    , s Y j.j.j.j.j.j.j.j.j.j.j.j.j.j.j.j.j.k + > > > , , ,     ",
"        j.j.j.j.j.j.j.j.j.j.j.j.j.j.j.j.j.j.I + > > > ,         "
};
